<svg width="80" height="80" viewBox="0 0 80 80" fill="none" xmlns="http://www.w3.org/2000/svg">
<path d="M38.0242 1.69939C24.4599 2.39381 12.2073 10.2696 5.92763 22.3289C2.26546 29.3635 0.914144 37.403 2.0497 45.3352C4.0937 59.5851 14.1888 71.5822 27.9574 76.1271C30.8247 77.0755 33.7147 77.6627 36.9056 77.9506C38.4443 78.0861 41.7261 78.0861 43.2647 77.9506C46.4557 77.6627 49.3456 77.0755 52.2129 76.1271C61.6948 72.9993 69.6267 66.2527 74.2427 57.3889C78.978 48.288 79.8183 37.5611 76.5593 27.7996C72.7552 16.4065 63.6707 7.37334 52.2129 3.59071C47.6764 2.09459 42.8503 1.45097 38.0242 1.69939ZM43.4351 2.05507C46.7168 2.36559 49.4535 2.94144 52.406 3.94074C59.0263 6.1821 64.8914 10.1962 69.4053 15.5822C74.0554 21.1207 77.0249 27.8899 77.9276 34.9753C78.1718 36.8836 78.2115 37.5893 78.2115 39.8589C78.2115 42.1285 78.1718 42.8342 77.9276 44.7424C76.7239 54.2103 71.8865 62.916 64.3861 69.1151C55.6026 76.3755 43.8723 79.3056 32.5621 77.0586C22.0242 74.9697 12.8318 68.4997 7.28462 59.2576C4.33785 54.3515 2.57206 48.8638 2.04402 42.964C1.94182 41.8123 1.90776 39.0459 1.98157 37.7982C2.57774 27.6246 7.00073 18.4503 14.5919 11.6246C20.2754 6.52084 27.5884 3.17857 35.1739 2.23009C36.1051 2.11717 36.6501 2.06636 38.2399 1.95345C38.9553 1.90263 42.5607 1.97603 43.4351 2.05507Z" fill="#BD0707"/>
<path d="M38.0411 4.23993C24.051 5.03598 11.8438 13.832 6.677 26.8341C5.46195 29.8941 4.66138 33.3042 4.33207 36.8102C4.20148 38.2611 4.20148 41.4566 4.33207 42.9075C5.01341 50.2188 7.73874 56.892 12.2923 62.4135C18.0496 69.3917 26.0439 73.8913 34.9751 75.1672C36.8204 75.4326 37.9105 75.506 40.0851 75.506C42.7025 75.506 44.5876 75.3366 46.9268 74.885C58.3278 72.6944 68.0425 65.0332 72.8232 54.47C74.447 50.885 75.452 47.012 75.8381 42.9075C75.9687 41.4566 75.9687 38.2611 75.8381 36.8102C75.5599 33.8405 74.9921 31.1531 74.0723 28.4262C71.4492 20.6803 66.1632 14.024 59.1624 9.64289C52.8828 5.71346 45.4676 3.8165 38.0411 4.23993ZM40.8743 7.76286C42.6231 7.84755 43.0375 7.89836 43.5258 8.07902C44.2583 8.35002 44.5705 8.79039 44.5705 9.54691C44.5705 10.2696 44.3094 10.6478 43.6337 10.9245L43.3328 11.043L43.5996 11.139C43.946 11.2576 44.3548 11.6189 44.5081 11.9294C44.6727 12.2625 44.6727 12.9174 44.5138 13.3465C44.3605 13.7417 43.9687 14.1087 43.5315 14.278C42.9637 14.4869 42.4357 14.5095 40.3974 14.4135C39.3697 14.3684 38.5123 14.3176 38.501 14.3063C38.4783 14.2837 38.677 9.61466 38.7622 8.25404L38.7962 7.67817H39.0006C39.1142 7.67817 39.9545 7.71769 40.8743 7.76286ZM35.7984 8.25404L36.0255 8.32744L36.0425 9.19687L36.0595 10.0607L35.8438 10.0212C35.0319 9.86872 34.3903 9.84049 33.7884 9.94211C33.2774 10.0212 33.1014 10.1228 33.1014 10.3317C33.1014 10.6083 33.2604 10.6648 34.3335 10.7551C34.9126 10.8059 35.435 10.8793 35.6564 10.9471C36.6557 11.2576 37.1213 11.9125 37.0645 12.9287C37.0304 13.4763 36.8771 13.8094 36.457 14.2329C35.611 15.0684 33.6976 15.4862 32.1021 15.1814L31.8126 15.1249L31.7728 14.278C31.7501 13.8094 31.7444 13.4142 31.7615 13.3973C31.7785 13.3804 31.9942 13.3973 32.2327 13.4425C32.9254 13.5667 33.9531 13.5441 34.4414 13.3917C34.8956 13.2505 34.9921 13.1715 34.9637 12.9457C34.941 12.7142 34.782 12.669 33.7203 12.5674C32.2952 12.4319 31.6933 12.1948 31.3016 11.6133C31.0574 11.2519 30.9779 10.9584 30.9779 10.4389C30.9722 9.64289 31.4208 9.01622 32.2781 8.60972C32.6245 8.446 33.3853 8.24275 33.9247 8.16371C34.2654 8.1129 35.5769 8.175 35.7984 8.25404ZM48.5563 8.78474C49.0844 8.95976 49.5102 9.11783 49.5102 9.14042C49.5102 9.15735 49.215 10.0381 48.8573 11.0882C48.3065 12.7029 48.2043 13.0586 48.2043 13.3465C48.2043 13.5836 48.2384 13.7473 48.3122 13.8659C48.4598 14.103 48.8913 14.3063 49.2661 14.3119C49.5159 14.3119 49.584 14.2893 49.743 14.1425C49.9871 13.9111 50.0837 13.674 50.782 11.585C51.117 10.5857 51.4123 9.7671 51.435 9.7671C51.4918 9.7671 53.2973 10.3712 53.3654 10.4107C53.4336 10.4559 52.122 14.3063 51.8778 14.7579C51.1341 16.1581 49.5329 16.5138 47.7274 15.6725C46.4612 15.0854 45.8708 14.1313 46.0411 12.9682C46.1149 12.4996 47.4662 8.46858 47.5514 8.46858C47.5798 8.46858 48.034 8.60972 48.5563 8.78474ZM28.7238 12.0085L28.6103 14.391L29.1553 15.4636C29.4506 16.0564 29.6947 16.5533 29.6947 16.5702C29.6947 16.5984 27.9062 17.5018 27.8495 17.5018C27.8324 17.5018 27.5769 17.0106 27.2874 16.4065L26.7593 15.3169L24.7948 13.9675C23.7104 13.2279 22.8246 12.6069 22.8246 12.59C22.8246 12.5504 24.6813 11.6302 24.7607 11.6302C24.7948 11.6302 25.249 11.9576 25.7714 12.3529C26.2937 12.7537 26.748 13.0981 26.7877 13.1207C26.8445 13.1545 26.8615 12.9005 26.8502 11.873L26.8388 10.5857L27.8267 10.1002C28.3718 9.83484 28.8204 9.61466 28.8204 9.62031C28.826 9.62595 28.7806 10.6987 28.7238 12.0085ZM57.8282 13.0078C58.8502 13.3521 59.963 14.2159 60.5251 15.108L60.6387 15.283L60.0539 15.6951C59.7359 15.9266 59.3952 16.1694 59.2987 16.2428L59.117 16.3783L58.9467 16.079C58.7082 15.65 58.2143 15.1757 57.7941 14.9668C57.3569 14.7523 56.8913 14.7297 56.4939 14.9104C56.1703 15.0572 55.7728 15.4749 55.5571 15.8984C55.4151 16.175 55.3867 16.2992 55.3867 16.6549C55.3867 17.0219 55.4094 17.1178 55.5457 17.3493C55.8466 17.8574 56.5563 18.2639 57.3853 18.4107C57.5954 18.4502 57.7771 18.4841 57.7827 18.4898C57.7998 18.501 57.1809 20.1665 57.1468 20.2061C57.0844 20.2625 56.3747 20.0423 55.8864 19.8165C53.5414 18.7212 52.6614 16.8694 53.6096 14.9951C54.1546 13.9167 55.0006 13.1715 55.9829 12.9005C56.4598 12.7706 57.2604 12.8214 57.8282 13.0078ZM24.5734 17.0445C25.5216 17.6147 26.2881 18.1002 26.2767 18.1228C26.2654 18.1454 25.919 18.4502 25.5045 18.8003C24.9822 19.235 24.721 19.4213 24.6585 19.3987C24.6074 19.3761 24.3576 19.235 24.0964 19.0826C23.8409 18.9245 23.6138 18.8003 23.5968 18.8003C23.5514 18.8003 22.0184 20.0875 21.9502 20.1835C21.9162 20.2286 21.9786 20.4488 22.1433 20.8271C22.3477 21.3183 22.3761 21.4142 22.3079 21.482C21.9616 21.8151 20.8033 22.741 20.7749 22.7071C20.7182 22.645 18.2086 16.2032 18.2313 16.1807C18.2426 16.1694 18.7082 15.7798 19.2646 15.3112L20.281 14.4644L21.5642 15.2378C22.2739 15.6612 23.6252 16.4742 24.5734 17.0445ZM63.4719 17.6203L64.1532 18.422L63.1085 19.3027C62.535 19.7883 62.0865 20.1891 62.1149 20.2004C62.1376 20.2117 62.8246 20.1383 63.6422 20.048C64.4541 19.952 65.1809 19.873 65.2604 19.873C65.391 19.873 65.5272 20.0141 66.8161 21.5272C66.8615 21.578 66.8899 21.6344 66.8786 21.6457C66.8672 21.657 65.9701 21.7248 64.88 21.7982L62.9098 21.928L62.853 22.1256C62.8246 22.2385 62.6089 23.1136 62.3704 24.079C62.1376 25.0388 61.9275 25.8744 61.8991 25.9252C61.8707 25.9986 61.6891 25.8179 61.0588 25.084L60.2639 24.1468L60.7068 22.5942C60.9566 21.7417 61.144 21.036 61.1326 21.019C61.1156 21.0078 60.6557 21.386 60.0993 21.8546C59.3555 22.4869 59.0716 22.7015 59.0148 22.662C58.9694 22.6337 58.6571 22.2837 58.3108 21.8772L57.6862 21.1489L57.8395 20.9965C58.0553 20.7932 62.7394 16.8243 62.7678 16.8243C62.7792 16.8243 63.0971 17.1856 63.4719 17.6203ZM42.7536 17.5864C46.9211 18.0889 50.7423 19.6133 54.024 22.0804C55.7955 23.4072 57.6976 25.3606 58.9751 27.1616C60.9112 29.8885 62.2114 32.9598 62.8189 36.2456C63.1028 37.7643 63.1653 38.5152 63.1653 40.3952C63.1653 42.7156 62.9949 44.1044 62.4556 46.1538C61.3881 50.2639 59.3271 53.7812 56.2327 56.796C52.5024 60.4262 47.9886 62.566 42.6969 63.2152C41.5329 63.3564 38.694 63.3564 37.5301 63.2152C33.5216 62.724 30.0013 61.386 26.7991 59.1447C25.0049 57.8913 23.0233 55.983 21.7061 54.2385C19.1908 50.9245 17.6919 47.1983 17.1639 42.964C17.0901 42.3373 17.0617 41.7332 17.0617 40.3952C17.0617 39.0572 17.0901 38.4531 17.1639 37.8264C17.6294 34.0889 18.8615 30.7184 20.8544 27.7488C21.8367 26.2809 22.7111 25.2421 24.051 23.9379C27.9857 20.1157 32.914 17.9308 38.5805 17.4792C39.2561 17.4284 42.0212 17.4961 42.7536 17.5864ZM17.6067 21.29C18.9013 22.6281 19.963 23.7403 19.9744 23.7629C19.98 23.7855 19.7302 24.2258 19.4179 24.7339C18.9921 25.4284 18.8218 25.6542 18.748 25.6373C18.6969 25.6316 17.76 25.3437 16.6642 25.0049C15.5741 24.6718 14.677 24.4008 14.6656 24.4065C14.66 24.4178 15.3299 25.1178 16.1532 25.9703C17.1184 26.9696 17.6465 27.5512 17.6238 27.6076C17.5613 27.7713 16.5507 29.3691 16.4939 29.3917C16.4314 29.4142 10.0099 27.4721 9.9474 27.41C9.91901 27.3874 10.3108 26.7212 10.9013 25.7897L11.1 25.4735L12.9169 26.2639C13.9162 26.6987 14.7962 27.0769 14.8757 27.1051C14.9552 27.139 14.3363 26.4785 13.5017 25.6485C12.6614 24.813 11.98 24.1129 11.98 24.0847C11.98 24.0169 13.1837 22.0748 13.2235 22.0748C13.2462 22.0748 14.1774 22.3797 15.3016 22.7523C16.6358 23.1926 17.3058 23.3903 17.232 23.3225C17.1695 23.266 16.4314 22.6563 15.5968 21.9675C14.5407 21.0981 14.0808 20.6859 14.1035 20.6295C14.1603 20.4771 15.1766 18.8567 15.2164 18.8567C15.2334 18.8567 16.3122 19.952 17.6067 21.29ZM67.9857 24.3274C68.968 24.8073 69.831 26.4502 69.9786 28.1214L70.0184 28.5448L69.2235 28.7537C68.7863 28.8666 68.3888 28.9626 68.3434 28.9626C68.281 28.9626 68.2583 28.8384 68.2299 28.4375C68.1901 27.8391 68.0311 27.1842 67.8154 26.7043C67.6337 26.2978 67.5145 26.1792 67.2987 26.2075C67.0432 26.2357 67.0148 26.4898 67.1624 27.331C67.2306 27.7149 67.2987 28.1835 67.3157 28.3754C67.3896 29.0981 67.1227 29.9054 66.6969 30.2272C66.3959 30.4587 65.9077 30.6563 65.5386 30.6902C64.6756 30.7805 63.8125 30.2272 63.1937 29.1941C62.7224 28.4037 62.3136 27.0317 62.3534 26.3599L62.3704 26.0607L63.1653 25.8461C63.6025 25.7276 63.9715 25.6316 63.9886 25.6316C64.0056 25.6316 64.051 25.9139 64.0851 26.2526C64.1702 27.0148 64.3349 27.6471 64.5791 28.1157C64.8062 28.5674 65.0049 28.7255 65.2036 28.6351C65.2831 28.6013 65.3626 28.5053 65.3853 28.4262C65.4023 28.3472 65.3626 27.9238 65.2945 27.4834C65.1298 26.4502 65.1298 25.7671 65.3001 25.3267C65.6862 24.2936 66.958 23.8193 67.9857 24.3274ZM10.0723 40.7396C10.7025 40.9033 11.5258 41.3888 12.0255 41.9026L12.2639 42.151L11.9403 42.247C11.4804 42.3881 10.8729 42.693 10.5038 42.9696C10.3335 43.0995 10.1915 43.1842 10.1802 43.1503C10.1688 43.1221 10.0666 42.9414 9.9474 42.7438C9.55563 42.0833 8.86862 41.5582 8.06238 41.2985C7.89204 41.2421 7.72739 41.1799 7.699 41.1574C7.6479 41.1066 7.97153 40.8864 8.2611 40.7735C8.73803 40.5815 9.41369 40.5702 10.0723 40.7396ZM71.9204 40.7396C72.2611 40.8525 72.6472 41.0953 72.5847 41.1574C72.5563 41.1799 72.3917 41.2421 72.2214 41.2985C71.4151 41.5582 70.7281 42.0833 70.3363 42.7438C70.2171 42.9414 70.1149 43.1221 70.1035 43.1503C70.0922 43.1842 69.9502 43.0995 69.7799 42.9696C69.4109 42.693 68.8033 42.3881 68.3434 42.247L68.0198 42.151L68.2583 41.9026C68.8998 41.2477 69.8253 40.7678 70.7167 40.6323C71.0006 40.5871 71.6309 40.6436 71.9204 40.7396ZM7.75578 41.6881C8.68693 42.0042 9.27742 42.4615 9.62377 43.1503L9.82249 43.5399L9.56699 43.8221C9.18658 44.2456 8.81185 44.8723 8.60744 45.4481L8.42576 45.9619L8.11348 45.6344C7.08012 44.5504 6.65429 43.1503 7.02334 42.0663C7.11419 41.7953 7.25613 41.5526 7.31859 41.5526C7.3413 41.5526 7.54002 41.6147 7.75578 41.6881ZM73.1695 41.8461C73.6976 42.8962 73.2831 44.4714 72.1702 45.6344L71.858 45.9619L71.6763 45.4481C71.4719 44.8723 71.0972 44.2456 70.7167 43.8221L70.4612 43.5399L70.66 43.1503C70.8927 42.6874 71.3697 42.2018 71.8296 41.976C72.1986 41.784 72.8459 41.5582 72.9538 41.5695C72.9992 41.5751 73.0957 41.6994 73.1695 41.8461ZM14.0411 42.7551C14.2171 42.8341 14.3647 42.9245 14.3647 42.9527C14.3647 43.0769 14.007 44.0254 13.8708 44.2569C13.5017 44.8948 12.7977 45.3804 11.9687 45.5836C11.452 45.7078 11.0546 45.8885 10.6514 46.1877C10.0893 46.6055 9.77139 47.108 9.40233 48.1298L9.36259 48.2428L9.27175 48.1298C8.86862 47.6104 8.74371 46.6845 8.96515 45.8772C9.1809 45.0924 9.5897 44.4432 10.254 43.8052C10.8786 43.2124 11.3612 42.9245 12.0936 42.6986C12.7011 42.5123 13.5642 42.5349 14.0411 42.7551ZM68.1277 42.6817C68.8487 42.885 69.3938 43.2011 70.0297 43.8052C70.694 44.4432 71.1028 45.0924 71.3186 45.8772C71.54 46.6845 71.4151 47.6104 71.012 48.1298L70.9211 48.2428L70.8814 48.1298C70.5123 47.108 70.1944 46.6055 69.6323 46.1877C69.2292 45.8885 68.8317 45.7078 68.315 45.5836C67.4861 45.3804 66.782 44.8948 66.413 44.2569C66.2767 44.031 65.919 43.0826 65.919 42.9527C65.919 42.8906 66.3335 42.6874 66.5833 42.6309C66.9808 42.5349 67.6848 42.5631 68.1277 42.6817ZM15.0858 43.7939C15.858 45.4368 14.5237 47.9153 12.4343 48.717C11.8551 48.9428 11.1795 49.0332 10.7253 48.9541C10.2994 48.8807 9.743 48.638 9.77707 48.542C9.7941 48.5025 9.87359 48.2597 9.95876 48C10.1518 47.4298 10.4811 46.9217 10.8615 46.6224C11.2533 46.3176 11.4747 46.2159 12.0993 46.0409C12.7806 45.849 13.1213 45.6852 13.5358 45.3521C13.973 45.0021 14.3477 44.4488 14.5918 43.8052C14.8076 43.2237 14.8133 43.2237 15.0858 43.7939ZM65.6919 43.8109C65.936 44.4488 66.3108 45.0021 66.748 45.3521C67.1624 45.6852 67.5031 45.849 68.1844 46.0409C68.809 46.2159 69.0304 46.3176 69.4222 46.6224C69.8026 46.9217 70.1319 47.4298 70.325 48C70.4101 48.2597 70.4896 48.5025 70.5067 48.542C70.5407 48.638 69.9843 48.8807 69.5585 48.9541C69.1042 49.0332 68.4286 48.9428 67.8495 48.717C66.6231 48.2484 65.5556 47.1249 65.1412 45.8715C64.9595 45.3126 64.9368 44.4545 65.0901 44.0367C65.1809 43.8052 65.4478 43.3027 65.4875 43.3027C65.4989 43.3027 65.5897 43.5286 65.6919 43.8109ZM56.9651 60.9456C57.2093 61.3013 57.4023 61.6118 57.4023 61.6401C57.4023 61.6627 56.8402 62.0635 56.1532 62.5208C55.4662 62.9838 54.8927 63.379 54.8757 63.4015C54.8587 63.4298 55.1539 63.9266 55.2788 64.0734C55.2902 64.0847 55.7047 63.8306 56.193 63.5032C56.6869 63.1814 57.1582 62.8708 57.2377 62.82L57.3853 62.724L57.8168 63.3733C58.061 63.729 58.254 64.0452 58.254 64.0677C58.254 64.096 57.8282 64.4065 57.3058 64.7565C56.7778 65.1065 56.3292 65.4171 56.3008 65.4396C56.227 65.5074 56.6756 66.1736 56.7721 66.1397C56.8118 66.1228 57.391 65.7445 58.061 65.2929C58.7253 64.8412 59.293 64.4742 59.3214 64.4742C59.3668 64.4742 60.2412 65.7332 60.2412 65.7953C60.2412 65.8292 56.0397 68.6577 55.9545 68.6859C55.9034 68.7029 52.2639 63.3902 52.2242 63.2378C52.2072 63.187 56.3974 60.3077 56.4996 60.302C56.5166 60.2964 56.7267 60.59 56.9651 60.9456ZM24.6131 61.0586C25.4478 61.2731 26.5209 61.9562 27.1284 62.6619C27.5145 63.1023 27.7302 63.4354 27.6791 63.5088C27.6451 63.5709 26.2597 64.5307 26.2143 64.5307C26.1972 64.5307 26.1064 64.3895 26.0099 64.2202C25.7714 63.8024 25.2377 63.283 24.8573 63.0967C24.4541 62.8991 23.9772 62.8878 23.5798 63.0628C23.0517 63.2943 22.518 64.0395 22.4442 64.6436C22.3874 65.1065 22.5123 65.4114 22.9041 65.801C23.3072 66.2018 23.7387 66.422 24.3463 66.5462C24.5847 66.597 24.7948 66.6478 24.8005 66.6535C24.8118 66.6591 24.6756 67.0487 24.4939 67.5173C24.2384 68.1778 24.1419 68.3698 24.0624 68.3698C23.8977 68.3698 23.0631 68.048 22.66 67.8278C21.1553 67.0092 20.3264 65.8744 20.3207 64.638C20.315 64.0508 20.4172 63.6556 20.7295 63.0571C21.2576 62.0522 22.1149 61.3013 23.012 61.0586C23.4094 60.9569 24.1986 60.9513 24.6131 61.0586ZM51.7984 64.3726C51.946 64.7791 52.0482 65.1291 52.0255 65.1517C52.0028 65.1743 51.3498 65.4284 50.5776 65.7163C49.7998 66.0042 49.1695 66.2639 49.1695 66.2978C49.1695 66.4051 49.4137 67.0148 49.4534 67.0148C49.4761 67.0148 49.7714 66.9132 50.1121 66.7833C50.4527 66.6535 50.9637 66.4672 51.2476 66.3655L51.77 66.1792L52.0595 66.9414C52.2185 67.3648 52.3434 67.7149 52.3377 67.7205C52.3264 67.7262 51.8211 67.9181 51.2135 68.1439C50.606 68.3698 50.0893 68.573 50.061 68.59C49.9985 68.6521 50.2824 69.3578 50.3732 69.3521C50.413 69.3465 51.083 69.1094 51.8551 68.8214C52.6273 68.5335 53.2689 68.3077 53.2803 68.319C53.3143 68.3698 53.8253 69.7643 53.8253 69.8151C53.8253 69.8885 48.9992 71.6669 48.9424 71.6104C48.9197 71.5822 48.3803 70.1877 47.7558 68.5109C46.87 66.1623 46.6259 65.4509 46.6827 65.4171C46.7735 65.355 51.3896 63.633 51.469 63.633C51.5031 63.6274 51.6507 63.9605 51.7984 64.3726ZM30.7565 64.2484C31.9204 64.525 32.9084 65.2364 33.3626 66.1228C33.8055 66.9866 33.743 68.2286 33.215 69.2731C32.4712 70.7353 31.029 71.4298 29.4222 71.1023C28.2072 70.8539 27.1454 70.1143 26.6912 69.1941C26.4641 68.7368 26.4073 68.4432 26.4016 67.8278C26.3959 66.0494 27.6507 64.4404 29.2405 64.175C29.6266 64.1129 30.325 64.1468 30.7565 64.2484ZM46.0979 66.0946C46.1319 66.3712 46.1773 66.7438 46.1944 66.9358L46.2285 67.2745L44.7636 67.4552C43.9517 67.5568 43.2817 67.6358 43.2646 67.6358C43.2476 67.6358 43.2533 67.8391 43.2874 68.0875C43.3498 68.6238 43.2022 68.59 44.6557 68.4037C45.2178 68.3303 45.6834 68.2738 45.6891 68.2794C45.7231 68.3077 45.8935 69.8941 45.8651 69.9224C45.848 69.9393 45.3314 70.0183 44.7068 70.0974C44.0879 70.1764 43.5769 70.2442 43.5712 70.2498C43.5599 70.2555 43.6167 70.7466 43.6962 71.3338C43.77 71.9266 43.8267 72.446 43.8154 72.4912C43.804 72.5533 43.5769 72.6041 42.8104 72.7001C42.2654 72.7678 41.7998 72.8017 41.7827 72.7847C41.7373 72.7283 40.9311 66.2696 40.9651 66.2357C40.9992 66.1962 45.5131 65.6203 45.8253 65.609L46.0297 65.6034L46.0979 66.0946ZM37.7174 66.0212C39.0574 66.1623 40.1646 66.2865 40.1816 66.3034C40.2214 66.343 40.0794 67.8786 40.034 67.9294C40.0113 67.9576 39.3697 67.9125 38.6089 67.8334C37.8424 67.7544 37.1781 67.6923 37.1213 67.6923C37.0475 67.6923 37.0191 67.777 36.9907 68.1157C36.968 68.3528 36.9623 68.5561 36.9737 68.573C36.9907 68.5843 37.5074 68.6464 38.1319 68.7142C38.7508 68.7763 39.2675 68.8384 39.2788 68.8497C39.3016 68.8722 39.1369 70.4643 39.1085 70.4926C39.0972 70.4982 38.5918 70.4587 37.99 70.3966C37.3825 70.3345 36.8601 70.295 36.8204 70.3063C36.7806 70.3232 36.7182 70.7523 36.6557 71.4241C36.5933 72.0282 36.5308 72.5363 36.5138 72.5589C36.4683 72.6097 34.5663 72.4347 34.4981 72.3726C34.4698 72.3444 34.5833 70.9894 34.7764 69.0473C35.0602 66.2696 35.1227 65.7727 35.2022 65.7727C35.2476 65.7727 36.3832 65.8857 37.7174 66.0212Z" fill="#BD0707"/>
<path d="M40.7439 9.86874C40.7269 10.1962 40.7155 10.4672 40.7212 10.4785C40.7382 10.4954 41.6126 10.5124 41.8851 10.5067C41.9987 10.5011 42.135 10.4446 42.2428 10.343C42.3848 10.2188 42.4189 10.1454 42.4245 9.95342C42.4302 9.46789 42.2258 9.34368 41.3003 9.29852L40.7837 9.27594L40.7439 9.86874Z" fill="#BD0707"/>
<path d="M40.6529 11.9238C40.6529 12.0593 40.6359 12.3359 40.6132 12.5448L40.5791 12.9287H41.3286C42.22 12.9287 42.3733 12.8779 42.4755 12.5335C42.5606 12.2512 42.4641 11.9972 42.22 11.873C42.078 11.7996 41.3286 11.7036 40.7551 11.6923C40.6756 11.6867 40.6529 11.7375 40.6529 11.9238Z" fill="#BD0707"/>
<path d="M20.2924 16.6323C20.5819 17.3888 21.1554 18.6874 21.1895 18.6761C21.2633 18.6478 22.1944 17.8744 22.2001 17.8349C22.2001 17.8123 21.7629 17.5131 21.2292 17.1687C20.6955 16.8186 20.2697 16.5815 20.2924 16.6323Z" fill="#BD0707"/>
<path d="M46.1945 25.2477C45.9049 25.4171 45.7629 25.6881 45.7629 26.072C45.7629 27.139 46.8417 28.5505 48.1192 29.1433C48.4769 29.307 48.5678 29.3239 49.039 29.3296C49.516 29.3296 49.5727 29.3183 49.709 29.1884C49.9418 28.9739 50.0213 28.7763 50.0213 28.4093C50.0213 27.3875 49.0106 26.0325 47.7842 25.4284C47.347 25.2139 47.1994 25.1687 46.8417 25.1461C46.467 25.1235 46.3875 25.1348 46.1945 25.2477Z" fill="#BD0707"/>
<path d="M26.4018 29.6232C25.7829 29.691 25.2038 29.9902 24.6304 30.5322C23.8922 31.2323 23.4323 31.9775 23.1882 32.8582C23.0463 33.372 23.0406 34.6084 23.1825 35.1165C23.5516 36.4489 24.3578 37.6684 25.4877 38.5999L25.8568 38.8992L26.0441 38.3798L26.2315 37.8604L25.8454 37.4877C24.4714 36.1779 23.8866 34.5858 24.2386 33.1179C24.4714 32.1582 25.0051 31.4186 25.7148 31.0629C26.8049 30.5209 27.9064 30.758 29.0193 31.7742L29.3429 32.0678L29.6438 31.6331L29.9448 31.1984L29.6325 30.9217C28.9568 30.3176 28.0313 29.8265 27.2648 29.6684C26.8901 29.5837 26.7879 29.5837 26.4018 29.6232Z" fill="#BD0707"/>
<path d="M33.1867 30.3966C33.1072 30.5152 33.0958 30.6168 33.1242 30.8991C33.1413 31.0967 33.1924 31.3677 33.2321 31.5088L33.3059 31.7573L33.8396 31.7911C35.6963 31.9097 37.5188 32.7283 38.8361 34.0438C40.2158 35.41 40.6473 36.6634 40.653 39.2661C40.6586 41.5413 40.829 42.2019 41.533 42.6817C42.0838 43.06 42.8787 43.2576 44.2697 43.3592C45.8595 43.4778 47.3244 43.2407 48.6757 42.6309L49.0674 42.4559L48.8801 42.2188C47.7616 40.7904 46.5408 39.4354 44.917 37.8264C41.7034 34.6422 38.626 32.288 36.0256 31.0233C34.907 30.4813 34.396 30.3119 33.7772 30.2781C33.2946 30.2498 33.2832 30.2498 33.1867 30.3966Z" fill="#BD0707"/>
<path d="M31.103 33.0671C29.3088 35.619 27.8383 38.7637 27.2876 41.2252C26.8504 43.1617 26.8049 45.0361 27.1456 46.7185C27.8213 50.0382 30.416 53.2562 33.6751 54.8201C35.35 55.6218 36.9512 55.9436 38.9213 55.8759C40.7837 55.8081 42.3791 55.4581 44.4004 54.6677C46.2003 53.962 48.3919 52.7764 50.0157 51.6359C50.3167 51.4214 50.3621 51.3706 50.2712 51.3423C49.7716 51.1673 49.1925 50.9133 48.5168 50.5632C43.2762 47.8759 36.1506 41.005 32.8575 35.4722C32.4146 34.727 31.8752 33.6712 31.6538 33.1123C31.5686 32.8921 31.4834 32.6945 31.4551 32.6719C31.4323 32.6437 31.2734 32.8243 31.103 33.0671ZM37.2464 42.8568C38.6602 43.2181 39.6254 44.161 40.0399 45.6006C40.1477 45.9676 40.1705 46.1709 40.1648 46.8314C40.1648 47.5032 40.1364 47.7065 40.0115 48.1864C39.5516 49.8914 38.2798 51.5287 36.7013 52.4376C35.702 53.0135 34.4302 53.3353 33.3912 53.2788C32.6985 53.2393 32.2954 53.132 31.6367 52.8102C29.8142 51.9239 29.0874 49.7446 29.8426 47.4468C30.2343 46.2386 31.1087 45.0078 32.1307 44.2061C33.7602 42.9302 35.6055 42.4447 37.2464 42.8568Z" fill="#BD0707"/>
<path d="M35.5372 43.1334C33.3967 43.3931 31.2903 45.0134 30.3988 47.091C29.7345 48.6493 29.8027 50.2527 30.5805 51.3931C30.9269 51.8956 31.2562 52.1722 31.8807 52.4827C32.5621 52.8158 33.0674 52.9231 33.8396 52.8836C36.5025 52.7424 38.9042 50.7269 39.6423 48.0169C39.7445 47.65 39.7672 47.4128 39.7672 46.7749C39.7615 46.0748 39.7445 45.9337 39.6139 45.5272C39.1426 44.1045 37.9333 43.2181 36.3378 43.1164C36.105 43.0995 35.7416 43.1108 35.5372 43.1334ZM36.8488 44.4093C36.8829 44.4432 36.8658 44.5674 36.7863 44.7706C36.7182 44.94 36.6274 45.307 36.5819 45.5893C36.4854 46.1821 36.3719 46.4644 36.0937 46.7749C35.7984 47.1136 35.401 47.3056 34.7878 47.4016C34.1008 47.5088 33.8055 47.6104 33.391 47.8758C32.545 48.4178 32.1419 49.0783 31.9432 50.2414C31.8183 50.9527 31.7956 50.9866 31.6025 50.7382C30.995 49.9478 31.0064 48.5363 31.6309 47.3112C32.1249 46.3345 33.181 45.2618 34.0951 44.8158C34.4187 44.6521 35.0035 44.4545 35.3783 44.3754C35.7019 44.3133 36.7693 44.3303 36.8488 44.4093ZM38.2001 45.3747C38.8076 46.3402 38.6941 47.7403 37.8935 49.0727C37.5415 49.6598 36.6898 50.5293 36.0993 50.9132C35.2363 51.4721 34.2541 51.7601 33.4421 51.698C32.9084 51.6584 32.7949 51.6189 32.8516 51.4947C32.9936 51.1785 33.1015 50.7833 33.1526 50.3881C33.2321 49.8292 33.4251 49.4284 33.7601 49.1179C34.0894 48.8186 34.396 48.6831 34.924 48.6097C35.8325 48.4799 36.3094 48.2597 36.8829 47.6838C37.3939 47.1757 37.6153 46.7354 37.7572 45.928C37.9276 44.9795 37.9389 44.9626 38.2001 45.3747Z" fill="#BD0707"/>
<path d="M35.2024 44.8328C34.345 45.053 33.6978 45.4369 33.0278 46.1144C32.4827 46.662 32.2386 46.9895 31.9604 47.5653C31.6594 48.1863 31.5686 48.5815 31.5686 49.259L31.5743 49.8236L31.7276 49.3719C32.1818 48.0565 33.2322 47.2209 34.6743 47.0233C35.1967 46.9499 35.5828 46.7693 35.8213 46.4813C36.0313 46.2273 36.1335 45.9563 36.2187 45.4199C36.2528 45.1998 36.2982 44.957 36.3152 44.8667L36.3493 44.7142L35.9916 44.7199C35.7929 44.7199 35.4352 44.7707 35.2024 44.8328Z" fill="#BD0707"/>
<path d="M38.0753 46.391C38.0526 46.5265 37.9334 46.837 37.8085 47.0911C37.5303 47.6613 36.9 48.3162 36.355 48.5985C35.9746 48.7961 35.2478 49.005 34.9242 49.005C34.4983 49.0106 33.9419 49.3776 33.7205 49.8067C33.6637 49.9252 33.5842 50.2075 33.5558 50.439C33.5218 50.6648 33.4707 50.9415 33.4423 51.0431C33.4082 51.1504 33.3855 51.2576 33.3855 51.2859C33.3855 51.3706 34.3053 51.2746 34.6914 51.1447C35.4409 50.902 36.0086 50.5576 36.6275 49.9817C37.7233 48.9542 38.3422 47.5202 38.1662 46.4362L38.1208 46.1539L38.0753 46.391Z" fill="#BD0707"/>
<path d="M52.7636 33.2082C52.5081 33.3324 52.6103 33.7615 53.0759 34.5745C53.4109 35.1503 53.6721 35.8278 53.8424 36.5561C54.0014 37.2506 54.0127 38.5999 53.8594 39.2943C53.3598 41.5921 52.0028 43.2407 49.709 44.3529C48.3463 45.0078 47.0234 45.324 45.4677 45.3748L44.457 45.4086L45.0589 45.8829C45.3939 46.1426 45.9446 46.5604 46.2853 46.8031C46.9836 47.3056 47.012 47.3113 47.6934 47.1701C49.1809 46.8596 50.5323 46.1144 51.7019 44.957C52.3435 44.3303 52.5422 44.2343 52.9964 44.3303C53.5983 44.4602 53.9332 45.1207 53.6891 45.7022C53.5869 45.9393 52.8545 46.7072 52.2924 47.1588C51.5145 47.7799 50.4471 48.3952 49.6806 48.6606L49.3683 48.7679L49.9361 49.0332C50.748 49.4115 51.6054 49.6881 52.0993 49.722L52.5138 49.7559L52.9794 49.3098C54.8474 47.5089 56.0567 44.9852 56.4939 41.9704C56.6472 40.9372 56.6983 39.2943 56.6132 38.4192C56.3633 35.9125 55.3868 34.089 53.8765 33.3381C53.462 33.1292 53.0305 33.0784 52.7636 33.2082Z" fill="#BD0707"/>
<path d="M34.5381 34.3204C35.492 35.9407 37.1556 38.199 38.399 39.5709L38.6659 39.8701V39.3451C38.6659 38.6168 38.5693 37.5949 38.4615 37.1884C38.2514 36.3698 37.6666 35.5681 36.8433 34.9527C36.1392 34.422 35.2649 34.0211 34.5154 33.8857L34.2485 33.8348L34.5381 34.3204Z" fill="#BD0707"/>
<path d="M8.84045 41.0388L8.63037 41.0727L8.954 41.2421C9.41958 41.4848 10.0669 42.1059 10.311 42.5575C10.328 42.5858 11.4693 41.976 11.4693 41.9365C11.4693 41.9196 11.2933 41.7841 11.0718 41.6373C10.3848 41.18 9.45933 40.9315 8.84045 41.0388Z" fill="white"/>
<path d="M70.66 41.0445C70.2285 41.1122 69.638 41.355 69.2065 41.6429C68.9907 41.7841 68.8147 41.9196 68.8147 41.9365C68.8147 41.976 69.9559 42.5858 69.973 42.5575C70.2171 42.1059 70.8587 41.4905 71.3413 41.2308C71.5628 41.1122 71.6422 41.0445 71.5628 41.0445C71.4946 41.0445 71.33 41.0332 71.1937 41.0219C71.0574 41.0049 70.819 41.0162 70.66 41.0445Z" fill="white"/>
<path d="M7.37544 42.2696C7.25052 42.7043 7.29027 43.3761 7.46628 43.8673C7.63094 44.3246 7.74449 44.5335 8.05109 44.9569L8.24414 45.2223L8.4826 44.7311C8.61887 44.4545 8.85734 44.0593 9.01631 43.8504C9.18097 43.6415 9.31156 43.4439 9.31156 43.41C9.31156 43.2914 9.02199 42.9132 8.72107 42.6422C8.49396 42.4333 8.2782 42.3091 7.94321 42.1792C7.69339 42.0833 7.47764 42.0042 7.46628 42.0042C7.4606 42.0042 7.42086 42.1228 7.37544 42.2696Z" fill="white"/>
<path d="M72.3181 42.1849C72.0115 42.3034 71.7843 42.4389 71.5629 42.6422C71.262 42.9132 70.9724 43.2914 70.9724 43.41C70.9724 43.4439 71.103 43.6415 71.2677 43.8504C71.4266 44.0593 71.6651 44.4545 71.8014 44.7311L72.0398 45.2223L72.2329 44.9569C72.7325 44.2625 72.9653 43.6528 72.9767 42.9922C72.9824 42.5744 72.8802 41.9986 72.795 42.0099C72.778 42.0099 72.5622 42.0889 72.3181 42.1849Z" fill="white"/>
<path d="M12.2697 43.0488C11.6338 43.2294 11.083 43.5682 10.4698 44.1779C9.97019 44.6691 9.86231 44.8102 9.6352 45.2788C9.49325 45.5724 9.34563 45.9281 9.31724 46.0692C9.24911 46.3628 9.23208 47.1984 9.30021 47.1984C9.32292 47.1984 9.41377 47.0572 9.50461 46.8878C9.66927 46.5717 10.0951 46.0918 10.4471 45.8321C10.7764 45.5837 11.2988 45.3522 11.8609 45.1941C12.4854 45.0191 12.6558 44.9401 12.9908 44.6691C13.303 44.4207 13.5813 44.0029 13.7686 43.5117L13.9106 43.1334L13.7573 43.0657C13.5074 42.9641 12.6217 42.9528 12.2697 43.0488Z" fill="white"/>
<path d="M66.714 43.0036C66.6685 43.0205 66.572 43.06 66.4982 43.0826L66.3733 43.1334L66.5152 43.5117C66.7026 44.0029 66.9808 44.4207 67.2931 44.6691C67.6281 44.9401 67.7984 45.0191 68.423 45.1941C68.9851 45.3522 69.5074 45.5837 69.8367 45.8321C70.1888 46.0918 70.6146 46.5717 70.7792 46.8878C70.8701 47.0572 70.9609 47.1984 70.9893 47.1984C71.0518 47.1984 71.0347 46.3628 70.9666 46.0692C70.9382 45.9281 70.7906 45.5724 70.6487 45.2788C70.4215 44.8102 70.3137 44.6691 69.814 44.1779C69.1895 43.5568 68.6387 43.2181 67.9858 43.0487C67.6678 42.9697 66.89 42.9415 66.714 43.0036Z" fill="white"/>
<path d="M14.6486 44.6464C14.359 45.2054 13.7742 45.7643 13.1667 46.0579C12.9055 46.1877 12.491 46.3458 12.2412 46.4079C11.9971 46.47 11.7132 46.566 11.6166 46.6168C11.0262 46.916 10.6003 47.4015 10.3619 48.0621L10.2256 48.4291L10.4641 48.4855C10.9069 48.5984 11.1113 48.6097 11.5144 48.5533C12.843 48.367 14.1376 47.3112 14.6826 45.9619C14.8473 45.5554 14.9438 44.8892 14.887 44.5335L14.8473 44.2625L14.6486 44.6464Z" fill="white"/>
<path d="M65.3911 44.5561C65.2208 45.9958 66.4017 47.7177 67.9915 48.3501C68.6331 48.6041 69.1895 48.6436 69.8198 48.4856L70.0582 48.4291L69.922 48.0621C69.6835 47.4016 69.2577 46.916 68.6672 46.6168C68.5707 46.566 68.2868 46.47 68.0426 46.4079C67.7928 46.3458 67.3783 46.1877 67.1171 46.0579C66.5153 45.7699 65.9305 45.211 65.6296 44.6408L65.4252 44.2512L65.3911 44.5561Z" fill="white"/>
<path d="M29.7459 65.9196C29.2633 66.0664 28.8261 66.6309 28.5933 67.4044C28.264 68.5166 28.8488 69.4425 29.8935 69.4425C30.2966 69.4425 30.5351 69.3409 30.8247 69.0529C31.3754 68.5053 31.6877 67.3705 31.4663 66.7269C31.2505 66.1172 30.3988 65.7163 29.7459 65.9196Z" fill="#BD0707"/>
</svg>
