<svg width="101" height="101" viewBox="0 0 101 101" fill="none" xmlns="http://www.w3.org/2000/svg">
<path d="M48.0056 2.14548C30.8806 3.02217 15.4117 12.9654 7.48365 28.1901C2.86016 37.0714 1.15413 47.2214 2.58777 57.2357C5.16832 75.2261 17.9134 90.3725 35.2962 96.1106C38.9161 97.3078 42.5648 98.0492 46.5934 98.4126C48.536 98.5838 52.6793 98.5838 54.6216 98.4126C58.6505 98.0492 62.2989 97.3078 65.9188 96.1106C77.8897 92.1617 87.9037 83.644 93.7314 72.4535C99.7098 60.9636 100.771 47.4208 96.6562 35.097C91.8536 20.7132 80.3844 9.30883 65.9188 4.53326C60.1914 2.64441 54.0985 1.83185 48.0056 2.14548ZM54.8368 2.59453C58.9799 2.98656 62.4351 3.71356 66.1625 4.97518C74.5207 7.80489 81.9255 12.8727 87.6242 19.6725C93.4949 26.6648 97.2438 35.2109 98.3836 44.1564C98.692 46.5657 98.742 47.4565 98.742 50.3218C98.742 53.1871 98.692 54.0782 98.3836 56.4872C96.8639 68.4404 90.7568 79.4313 81.2874 87.2578C70.1984 96.4242 55.3887 100.123 41.1096 97.2866C27.8056 94.6492 16.2002 86.4809 9.19685 74.8128C5.47655 68.6189 3.24725 61.6905 2.5806 54.2422C2.45157 52.788 2.40857 49.2955 2.50175 47.7202C3.25442 34.8761 8.83845 23.2935 18.4223 14.676C25.5977 8.23256 34.8303 4.01293 44.4071 2.81549C45.5826 2.67292 46.2707 2.60877 48.278 2.46623C49.1811 2.40207 53.7328 2.49473 54.8368 2.59453Z" fill="#CD1818"/>
<path d="M48.0268 5.35292C30.3645 6.35792 14.9528 17.4629 8.42972 33.878C6.89571 37.7414 5.88499 42.0466 5.46923 46.4729C5.30437 48.3047 5.30437 52.339 5.46923 54.1707C6.32944 63.4013 9.77017 71.8263 15.519 78.7971C22.7876 87.6071 32.8804 93.2877 44.1562 94.8986C46.4856 95.2337 47.8621 95.3264 50.6075 95.3264C53.912 95.3264 56.292 95.1125 59.245 94.5422C73.6388 91.7766 85.9036 82.1045 91.9393 68.7683C93.9893 64.2422 95.2583 59.3528 95.7457 54.1707C95.9104 52.339 95.9104 48.3047 95.7457 46.4729C95.3945 42.7235 94.6776 39.3307 93.5161 35.8881C90.2046 26.1088 83.5311 17.7053 74.6926 12.1742C66.7646 7.21326 57.403 4.81835 48.0268 5.35292ZM51.6037 9.80062C53.8118 9.90753 54.3349 9.97168 54.9513 10.1998C55.876 10.5419 56.2702 11.0979 56.2702 12.053C56.2702 12.9654 55.9405 13.4428 55.0875 13.7922L54.7076 13.9418L55.0445 14.063C55.4819 14.2127 55.998 14.6688 56.1915 15.0609C56.3992 15.4814 56.3992 16.3082 56.1987 16.85C56.005 17.3489 55.5104 17.8122 54.9585 18.026C54.2417 18.2897 53.5751 18.3182 51.0016 18.197C49.7042 18.1401 48.6217 18.076 48.6074 18.0617C48.5789 18.0332 48.8296 12.1385 48.9373 10.4207L48.9801 9.69369H49.2383C49.3818 9.69369 50.4425 9.7436 51.6037 9.80062ZM45.1954 10.4207L45.4821 10.5134L45.5036 11.6111L45.5251 12.7016L45.2529 12.6518C44.2279 12.4593 43.4178 12.4236 42.6577 12.5519C42.0126 12.6518 41.7904 12.78 41.7904 13.0438C41.7904 13.393 41.9911 13.4643 43.3461 13.5783C44.0772 13.6425 44.7368 13.7351 45.0162 13.8207C46.2779 14.2127 46.8656 15.0395 46.7938 16.3225C46.7508 17.0138 46.5574 17.4344 46.027 17.969C44.959 19.0238 42.5433 19.5513 40.529 19.1665L40.1633 19.0952L40.1131 18.026C40.0846 17.4344 40.0773 16.9354 40.0988 16.9141C40.1203 16.8927 40.3928 16.9141 40.6937 16.9712C41.5682 17.1279 42.8657 17.0994 43.4823 16.907C44.0557 16.7288 44.1774 16.629 44.1417 16.3439C44.1129 16.0517 43.9122 15.9946 42.5718 15.8663C40.7727 15.6953 40.0128 15.3959 39.5182 14.6618C39.21 14.2055 39.1095 13.835 39.1095 13.1791C39.1023 12.1741 39.6687 11.383 40.7512 10.8698C41.1883 10.6631 42.1489 10.4065 42.83 10.3067C43.2601 10.2425 44.9157 10.321 45.1954 10.4207ZM61.3023 11.0907C61.9689 11.3117 62.5066 11.5113 62.5066 11.5398C62.5066 11.5612 62.1339 12.6731 61.6823 13.9989C60.9869 16.0374 60.8579 16.4865 60.8579 16.85C60.8579 17.1493 60.9009 17.356 60.9942 17.5057C61.1806 17.805 61.7252 18.0617 62.1984 18.0688C62.5138 18.0688 62.5998 18.0402 62.8005 17.8549C63.1087 17.5628 63.2307 17.2634 64.1122 14.6261C64.5351 13.3644 64.908 12.331 64.9368 12.331C65.0085 12.331 67.2878 13.0936 67.3737 13.1435C67.46 13.2006 65.8041 18.0617 65.4957 18.6319C64.5569 20.3996 62.5353 20.8487 60.2558 19.7865C58.6572 19.0453 57.9118 17.8408 58.1268 16.3724C58.22 15.7807 59.9261 10.6916 60.0336 10.6916C60.0696 10.6916 60.643 10.8698 61.3023 11.0907ZM36.2639 15.1607L36.1204 18.1686L36.8085 19.5228C37.1815 20.2712 37.4896 20.8985 37.4896 20.9199C37.4896 20.9555 35.2316 22.096 35.1599 22.096C35.1384 22.096 34.8157 21.4759 34.4503 20.7132L33.7837 19.3376L31.3035 17.634C29.9343 16.7002 28.8161 15.9162 28.8161 15.8949C28.8161 15.8449 31.1601 14.6831 31.2603 14.6831C31.3035 14.6831 31.8769 15.0965 32.5365 15.5955C33.1959 16.1015 33.7695 16.5363 33.8195 16.5649C33.8912 16.6076 33.9127 16.2869 33.8984 14.9897L33.8839 13.3644L35.1312 12.7515C35.8195 12.4165 36.3856 12.1385 36.3856 12.1456C36.3929 12.1528 36.3354 13.5071 36.2639 15.1607ZM73.0082 16.4223C74.2984 16.857 75.7034 17.9476 76.413 19.0738L76.5564 19.2948L75.8181 19.8151C75.4167 20.1073 74.9865 20.4139 74.8646 20.5065L74.6351 20.6776L74.4202 20.2997C74.119 19.7581 73.4956 19.1593 72.965 18.8956C72.4131 18.6248 71.8252 18.5962 71.3236 18.8244C70.9149 19.0097 70.4131 19.537 70.1409 20.0717C69.9617 20.4209 69.9257 20.5777 69.9257 21.0268C69.9257 21.4901 69.9544 21.6112 70.1264 21.9035C70.5063 22.545 71.4023 23.0582 72.4488 23.2435C72.7143 23.2934 72.9435 23.3362 72.9507 23.3434C72.9722 23.3575 72.1909 25.4602 72.1479 25.5102C72.0689 25.5814 71.1731 25.3034 70.5565 25.0183C67.5959 23.6355 66.4849 21.2976 67.6822 18.9313C68.3703 17.5698 69.4383 16.629 70.6785 16.2869C71.2806 16.1229 72.2911 16.187 73.0082 16.4223ZM31.0238 21.5187C32.2211 22.2386 33.1886 22.8515 33.1744 22.88C33.1601 22.9086 32.7227 23.2934 32.1993 23.7354C31.54 24.2842 31.2103 24.5194 31.1313 24.4909C31.0668 24.4623 30.7514 24.2842 30.4217 24.0918C30.099 23.8922 29.8123 23.7354 29.7909 23.7354C29.7336 23.7354 27.7983 25.3605 27.7121 25.4817C27.6691 25.5386 27.7481 25.8166 27.956 26.2942C28.214 26.9144 28.2497 27.0354 28.1637 27.1211C27.7266 27.5417 26.2641 28.7104 26.2284 28.6677C26.1567 28.5892 22.9884 20.4565 23.017 20.4281C23.0313 20.4139 23.6191 19.922 24.3216 19.3304L25.6048 18.2613L27.2247 19.2377C28.1207 19.7723 29.8269 20.7987 31.0238 21.5187ZM80.1334 22.2456L80.9935 23.2578L79.6745 24.3696C78.9504 24.9827 78.3843 25.4887 78.42 25.503C78.4488 25.5173 79.3161 25.4246 80.3483 25.3106C81.3734 25.1894 82.2909 25.0897 82.3911 25.0897C82.5561 25.0897 82.7281 25.2678 84.3555 27.1781C84.4127 27.2423 84.4484 27.3135 84.4342 27.3278C84.4199 27.342 83.2872 27.4275 81.911 27.5202L79.4235 27.6841L79.3518 27.9335C79.3161 28.0762 79.0436 29.181 78.7427 30.3997C78.4488 31.6114 78.1836 32.6665 78.1476 32.7305C78.1118 32.8232 77.8824 32.595 77.0868 31.6684L76.0833 30.4854L76.6424 28.5252C76.9576 27.449 77.1943 26.5578 77.1798 26.5366C77.1586 26.5223 76.5779 26.9999 75.8753 27.5914C74.9363 28.3898 74.5779 28.6607 74.5061 28.6107C74.4489 28.575 74.0545 28.1332 73.6173 27.6199L72.8288 26.7005L73.0225 26.5081C73.2949 26.2515 79.2086 21.2407 79.2443 21.2407C79.2588 21.2407 79.66 21.6968 80.1334 22.2456ZM53.9765 22.2028C59.2378 22.8372 64.0622 24.7618 68.2053 27.8765C70.4418 29.5516 72.8433 32.0178 74.4562 34.2916C76.9004 37.7341 78.542 41.6117 79.3088 45.76C79.6672 47.6774 79.7462 48.6255 79.7462 50.999C79.7462 53.9286 79.531 55.6818 78.8502 58.2692C77.5025 63.4583 74.9006 67.8987 70.9937 71.7048C66.2842 76.2882 60.5855 78.9895 53.9047 79.8092C52.4353 79.9873 48.8511 79.9873 47.3817 79.8092C42.3211 79.1889 37.8766 77.4999 33.834 74.6701C31.5687 73.0877 29.067 70.6785 27.4039 68.4762C24.2284 64.2922 22.336 59.5879 21.6694 54.2419C21.5762 53.4508 21.5404 52.6881 21.5404 50.999C21.5404 49.3098 21.5762 48.5471 21.6694 47.7559C22.2571 43.0371 23.8126 38.7819 26.3286 35.0328C27.5689 33.1795 28.6729 31.8681 30.3645 30.2215C35.3319 25.3961 41.554 22.6376 48.7079 22.0675C49.561 22.0033 53.0517 22.0888 53.9765 22.2028ZM22.2285 26.8787C23.8629 28.568 25.2033 29.9721 25.2177 30.0006C25.2247 30.0291 24.9094 30.5851 24.5151 31.2266C23.9775 32.1032 23.7625 32.3884 23.6693 32.3671C23.6048 32.3599 22.422 31.9965 21.0386 31.5687C19.6623 31.1481 18.5297 30.806 18.5153 30.8133C18.5082 30.8275 19.354 31.7112 20.3934 32.7874C21.612 34.0492 22.2787 34.7834 22.25 34.8546C22.1711 35.0612 20.8953 37.0784 20.8236 37.1071C20.7446 37.1354 12.6375 34.6834 12.5586 34.6052C12.5228 34.5767 13.0174 33.7356 13.7629 32.5596L14.0138 32.1602L16.3076 33.1583C17.5692 33.7071 18.6802 34.1846 18.7806 34.2201C18.8809 34.2631 18.0996 33.4292 17.0459 32.3811C15.985 31.3263 15.1248 30.4424 15.1248 30.407C15.1248 30.3212 16.6444 27.8695 16.6947 27.8695C16.7233 27.8695 17.899 28.2544 19.3183 28.7247C21.0027 29.2807 21.8486 29.5303 21.7554 29.4446C21.6765 29.3734 20.7446 28.6035 19.691 27.7341C18.3576 26.6363 17.777 26.116 17.8057 26.0448C17.8774 25.8523 19.1605 23.8066 19.2107 23.8066C19.2322 23.8066 20.5942 25.1894 22.2285 26.8787ZM85.8319 30.7133C87.0721 31.3193 88.1616 33.3934 88.3481 35.5033L88.3983 36.0378L87.3948 36.3015C86.8426 36.4442 86.3408 36.5654 86.2835 36.5654C86.2048 36.5654 86.176 36.4084 86.1403 35.9024C86.0901 35.147 85.8894 34.3201 85.6169 33.7141C85.3875 33.201 85.237 33.0513 84.9646 33.0871C84.6421 33.1226 84.6061 33.4434 84.7926 34.5055C84.8786 34.99 84.9646 35.5818 84.9861 35.8239C85.0793 36.7363 84.7424 37.7556 84.2047 38.1619C83.8248 38.4541 83.2085 38.7035 82.7426 38.7464C81.6531 38.8604 80.5633 38.1619 79.782 36.8575C79.1871 35.8597 78.671 34.1276 78.7212 33.2795L78.7427 32.9017L79.7462 32.6308C80.2981 32.4811 80.764 32.3599 80.7855 32.3599C80.807 32.3599 80.8645 32.7162 80.9075 33.1438C81.0149 34.1061 81.2229 34.9046 81.5311 35.4961C81.8178 36.0663 82.0687 36.266 82.3197 36.1518C82.4199 36.1091 82.5204 35.9879 82.5488 35.8881C82.5703 35.7884 82.5204 35.2539 82.4344 34.6979C82.2264 33.3934 82.2264 32.5311 82.4414 31.975C82.9288 30.6706 84.5344 30.0718 85.8319 30.7133ZM12.7163 51.4339C13.5119 51.6405 14.5513 52.2533 15.1822 52.902L15.4832 53.2156L15.0746 53.3368C14.494 53.515 13.727 53.8998 13.261 54.2492C13.046 54.4131 12.8668 54.5201 12.8525 54.4773C12.8381 54.4416 12.7091 54.2134 12.5586 53.964C12.064 53.1301 11.1966 52.4672 10.1788 52.1393C9.9637 52.0681 9.75582 51.9896 9.71998 51.9611C9.65547 51.8972 10.0641 51.619 10.4296 51.4766C11.0318 51.2342 11.8848 51.2199 12.7163 51.4339ZM90.7995 51.4339C91.2297 51.5763 91.7171 51.8829 91.6381 51.9611C91.6023 51.9896 91.3946 52.0681 91.1794 52.1393C90.1617 52.4672 89.2944 53.1301 88.7997 53.964C88.649 54.2134 88.52 54.4416 88.5058 54.4773C88.4913 54.5201 88.3121 54.4131 88.0971 54.2492C87.6312 53.8998 86.8641 53.515 86.2835 53.3368L85.8751 53.2156L86.176 52.902C86.9861 52.0753 88.1543 51.4693 89.2798 51.2982C89.6383 51.2412 90.4341 51.3127 90.7995 51.4339ZM9.79167 52.6311C10.9673 53.0302 11.7127 53.6077 12.15 54.4773L12.4009 54.9691L12.0783 55.3255C11.5981 55.86 11.125 56.6512 10.8669 57.3781L10.6375 58.0268L10.2433 57.6135C8.93866 56.2448 8.40105 54.4773 8.86697 53.1086C8.98167 52.7665 9.16086 52.4602 9.23971 52.4602C9.26838 52.4602 9.51928 52.5386 9.79167 52.6311ZM92.3764 52.8308C93.0433 54.1565 92.5199 56.1451 91.1149 57.6135L90.7208 58.0268L90.4913 57.3781C90.2334 56.6512 89.7602 55.86 89.2798 55.3255L88.9572 54.9691L89.2084 54.4773C89.502 53.8928 90.1042 53.2798 90.6848 52.9947C91.1507 52.7523 91.968 52.4672 92.1042 52.4814C92.1615 52.4887 92.2834 52.6456 92.3764 52.8308ZM17.7269 53.9783C17.9491 54.078 18.1354 54.1922 18.1354 54.2277C18.1354 54.3846 17.6838 55.5821 17.5119 55.8742C17.0459 56.6796 16.1571 57.2926 15.1105 57.5493C14.4582 57.7062 13.9564 57.9341 13.4474 58.312C12.7377 58.8395 12.3364 59.4737 11.8705 60.7639L11.8203 60.9066L11.7056 60.7639C11.1966 60.1082 11.0389 58.9392 11.3185 57.9199C11.5909 56.929 12.107 56.1096 12.9457 55.304C13.7342 54.5555 14.3435 54.1922 15.2682 53.9071C16.0351 53.6717 17.1248 53.7004 17.7269 53.9783ZM86.0113 53.8856C86.9214 54.1422 87.6097 54.5413 88.4125 55.304C89.2511 56.1096 89.7672 56.929 90.0397 57.9199C90.3194 58.9392 90.1617 60.1082 89.6528 60.7639L89.5378 60.9066L89.4878 60.7639C89.0217 59.4737 88.6205 58.8395 87.9107 58.312C87.4018 57.9341 86.9001 57.7062 86.2478 57.5493C85.2013 57.2926 84.3122 56.6796 83.8463 55.8742C83.6744 55.5891 83.2227 54.3919 83.2227 54.2277C83.2227 54.1495 83.7461 53.8928 84.0615 53.8216C84.5631 53.7004 85.4519 53.7359 86.0113 53.8856ZM19.0458 55.2897C20.0207 57.3639 18.3362 60.493 15.6983 61.5051C14.9671 61.7902 14.1141 61.9045 13.5407 61.8045C13.003 61.7118 12.3005 61.4054 12.3435 61.2842C12.365 61.2345 12.4654 60.9279 12.5729 60.6C12.8166 59.8801 13.2324 59.2386 13.7126 58.8607C14.2073 58.4759 14.4868 58.3477 15.2754 58.1265C16.1355 57.8844 16.5656 57.6775 17.0889 57.2569C17.6409 56.8151 18.114 56.1166 18.4221 55.304C18.6946 54.57 18.7018 54.57 19.0458 55.2897ZM82.936 55.3112C83.2442 56.1166 83.7173 56.8151 84.2695 57.2569C84.7926 57.6775 85.2228 57.8844 86.0828 58.1265C86.8714 58.3477 87.1508 58.4759 87.6455 58.8607C88.1259 59.2386 88.5415 59.8801 88.7852 60.6C88.8927 60.9279 88.9932 61.2345 89.0147 61.2842C89.0577 61.4054 88.3551 61.7118 87.8177 61.8045C87.2441 61.9045 86.391 61.7902 85.6599 61.5051C84.1118 60.9136 82.7641 59.4952 82.2407 57.9129C82.0115 57.2072 81.9827 56.1239 82.1762 55.5964C82.2909 55.304 82.6278 54.6697 82.6781 54.6697C82.6923 54.6697 82.807 54.9549 82.936 55.3112ZM71.9185 76.9439C72.2266 77.3929 72.4703 77.785 72.4703 77.8205C72.4703 77.8492 71.7608 78.3553 70.8935 78.9325C70.0261 79.517 69.3021 80.0161 69.2806 80.0443C69.2591 80.0801 69.6317 80.7073 69.7894 80.8927C69.8039 80.907 70.3271 80.5861 70.9437 80.1728C71.5673 79.7664 72.1622 79.3744 72.2626 79.3101L72.4488 79.1889L72.9937 80.0088C73.3019 80.4579 73.5456 80.857 73.5456 80.8855C73.5456 80.9212 73.0082 81.3133 72.3486 81.7551C71.682 82.1969 71.1157 82.589 71.0797 82.6175C70.9867 82.7032 71.5531 83.5441 71.6748 83.5014C71.725 83.4801 72.4561 83.0023 73.3019 82.4323C74.1407 81.8621 74.8573 81.3988 74.8933 81.3988C74.9505 81.3988 76.0545 82.9881 76.0545 83.0666C76.0545 83.1093 70.7502 86.6803 70.6425 86.716C70.578 86.7375 65.9833 80.0301 65.9331 79.8377C65.9116 79.7737 71.2016 76.1385 71.3309 76.1312C71.3521 76.1242 71.6175 76.4948 71.9185 76.9439ZM31.0741 77.0866C32.1278 77.3572 33.4825 78.2196 34.2496 79.1107C34.737 79.6667 35.0094 80.0873 34.945 80.1798C34.902 80.2582 33.1529 81.47 33.0956 81.47C33.0739 81.47 32.9594 81.2918 32.8374 81.0779C32.5365 80.5506 31.8627 79.8949 31.3823 79.6595C30.8734 79.4101 30.2713 79.3958 29.7696 79.6168C29.1028 79.9091 28.4289 80.85 28.3357 81.6127C28.2642 82.1969 28.4217 82.582 28.9163 83.0738C29.4254 83.5798 29.9701 83.8577 30.7371 84.0147C31.0381 84.0786 31.3035 84.1428 31.3105 84.1501C31.325 84.1571 31.1531 84.6489 30.9236 85.2406C30.6009 86.0745 30.4792 86.3169 30.3787 86.3169C30.1708 86.3169 29.1173 85.9106 28.6084 85.6325C26.7085 84.5992 25.6621 83.1665 25.6549 81.6054C25.6477 80.8642 25.7767 80.3652 26.1709 79.6095C26.8378 78.3408 27.92 77.3929 29.0528 77.0866C29.5544 76.9581 30.5507 76.9511 31.0741 77.0866ZM65.3954 81.2703C65.5819 81.7836 65.7109 82.2254 65.6821 82.2541C65.6536 82.2826 64.829 82.6032 63.8543 82.9668C62.8722 83.3302 62.0764 83.658 62.0764 83.701C62.0764 83.8365 62.3849 84.6061 62.4348 84.6061C62.4636 84.6061 62.8365 84.478 63.2667 84.314C63.6966 84.1501 64.3417 83.915 64.7001 83.7865L65.3597 83.5513L65.7251 84.5134C65.9258 85.048 66.0835 85.49 66.0763 85.497C66.062 85.5043 65.4242 85.7467 64.6571 86.0318C63.89 86.3169 63.2377 86.5733 63.2019 86.5948C63.1232 86.6733 63.4816 87.5642 63.5961 87.5569C63.6463 87.5499 64.4924 87.2505 65.4672 86.8869C66.4419 86.5236 67.252 86.2385 67.2663 86.2527C67.3092 86.3169 67.9544 88.0774 67.9544 88.1417C67.9544 88.2341 61.8615 90.4794 61.7897 90.4082C61.7612 90.3725 61.0801 88.612 60.2918 86.4951C59.1733 83.5299 58.8651 82.6317 58.9369 82.589C59.0516 82.5108 64.8793 80.3367 64.9795 80.3367C65.0228 80.3297 65.209 80.75 65.3954 81.2703ZM38.8301 81.1136C40.2995 81.4627 41.5467 82.3608 42.1204 83.4801C42.6795 84.5707 42.6005 86.1385 41.9339 87.4572C40.9949 89.3034 39.174 90.1801 37.1455 89.7667C35.6116 89.4531 34.2711 88.5193 33.6977 87.3575C33.4111 86.7802 33.3393 86.4096 33.3321 85.6325C33.3248 83.3874 34.909 81.356 36.916 81.0209C37.4037 80.9424 38.2852 80.9854 38.8301 81.1136ZM58.1985 83.4444C58.2415 83.7937 58.2988 84.264 58.3205 84.5064L58.3635 84.934L56.5142 85.1622C55.4891 85.2904 54.6431 85.3903 54.6216 85.3903C54.6001 85.3903 54.6073 85.647 54.6503 85.9606C54.7291 86.6375 54.5429 86.5948 56.3779 86.3597C57.0875 86.267 57.6754 86.1957 57.6824 86.2027C57.7254 86.2385 57.9406 88.2414 57.9046 88.2771C57.8831 88.2984 57.231 88.3981 56.4424 88.498C55.6611 88.5977 55.0157 88.6832 55.0087 88.6904C54.9945 88.6977 55.066 89.3177 55.1665 90.0589C55.2597 90.8073 55.3312 91.463 55.3169 91.5202C55.3027 91.5985 55.0157 91.6627 54.0482 91.7839C53.3601 91.8693 52.7722 91.9121 52.7507 91.8906C52.6933 91.8194 51.6755 83.6653 51.7185 83.6226C51.7615 83.5726 57.4602 82.8456 57.8544 82.8314L58.1126 82.8244L58.1985 83.4444ZM47.6181 83.3517C49.31 83.5299 50.7077 83.6868 50.7292 83.708C50.7794 83.758 50.6002 85.6967 50.543 85.7609C50.5142 85.7964 49.7042 85.7394 48.7436 85.6397C47.7761 85.54 46.9373 85.4615 46.8656 85.4615C46.7726 85.4615 46.7366 85.5685 46.7008 85.9961C46.6721 86.2954 46.6648 86.5521 46.6793 86.5733C46.7008 86.5876 47.3532 86.666 48.1415 86.7518C48.9228 86.83 49.5752 86.9084 49.5894 86.9227C49.6182 86.9512 49.4102 88.9611 49.3745 88.9968C49.3603 89.0041 48.7221 88.9541 47.9623 88.8756C47.1955 88.7974 46.5359 88.7474 46.4856 88.7617C46.4354 88.7832 46.3567 89.3247 46.2779 90.1728C46.199 90.9355 46.1202 91.577 46.0987 91.6057C46.0412 91.6697 43.64 91.4488 43.5538 91.3703C43.5181 91.3348 43.6615 89.624 43.9052 87.1723C44.2634 83.6653 44.3424 83.0381 44.4428 83.0381C44.5001 83.0381 45.9338 83.1808 47.6181 83.3517Z" fill="#CD1818"/>
<path d="M51.4393 12.4593C51.4178 12.8727 51.4033 13.2148 51.4106 13.2291C51.4321 13.2504 52.5358 13.2719 52.88 13.2647C53.0235 13.2576 53.1954 13.1863 53.3317 13.058C53.5109 12.9012 53.5539 12.8086 53.5608 12.5662C53.5681 11.9532 53.3102 11.7964 52.1417 11.7394L51.4896 11.7109L51.4393 12.4593Z" fill="#CD1818"/>
<path d="M51.3243 15.0538C51.3243 15.2249 51.3028 15.5741 51.2741 15.8378L51.2311 16.3225H52.1774C53.3029 16.3225 53.4963 16.2584 53.6253 15.8235C53.7328 15.4671 53.6108 15.1465 53.3029 14.9897C53.1234 14.897 52.1774 14.7758 51.4533 14.7615C51.3531 14.7545 51.3243 14.8186 51.3243 15.0538Z" fill="#CD1818"/>
<path d="M25.6192 20.9983C25.9847 21.9534 26.7088 23.5928 26.7518 23.5786C26.8451 23.5429 28.0205 22.5664 28.0275 22.5166C28.0275 22.488 27.4757 22.1103 26.8018 21.6755C26.1282 21.2335 25.5905 20.9341 25.6192 20.9983Z" fill="#CD1818"/>
<path d="M58.3205 31.8753C57.9548 32.089 57.7756 32.4314 57.7756 32.9159C57.7756 34.2631 59.1376 36.0451 60.7505 36.7935C61.2021 37.0002 61.3169 37.0214 61.9117 37.0287C62.5141 37.0287 62.5856 37.0144 62.7575 36.8502C63.0515 36.5796 63.152 36.33 63.152 35.8666C63.152 34.5767 61.876 32.8659 60.3276 32.1032C59.7757 31.8326 59.5892 31.7754 59.1376 31.7469C58.6647 31.7184 58.5642 31.7326 58.3205 31.8753Z" fill="#CD1818"/>
<path d="M33.3324 37.3993C32.551 37.485 31.8199 37.8626 31.0959 38.547C30.1638 39.4307 29.5832 40.3715 29.275 41.4835C29.0961 42.1323 29.0888 43.6931 29.268 44.3346C29.7339 46.0166 30.7517 47.5562 32.1784 48.7325L32.6443 49.1103L32.8807 48.4546L33.1174 47.7986L32.6298 47.3283C30.8951 45.6745 30.1568 43.6646 30.6012 41.8114C30.8951 40.5997 31.569 39.6661 32.465 39.217C33.8412 38.5325 35.2319 38.8319 36.6369 40.1149L37.0455 40.4857L37.4254 39.9367L37.8054 39.3879L37.4109 39.0386C36.5579 38.2759 35.3896 37.6559 34.4219 37.4562C33.9487 37.3495 33.8197 37.3495 33.3324 37.3993Z" fill="#CD1818"/>
<path d="M41.8982 38.3756C41.7979 38.5255 41.7834 38.6537 41.8192 39.0101C41.8409 39.2595 41.9054 39.6016 41.9554 39.7798L42.0486 40.0936L42.7225 40.1364C45.0664 40.2861 47.3674 41.3194 49.0306 42.9802C50.7724 44.7052 51.3173 46.2875 51.3243 49.5734C51.3315 52.4459 51.5465 53.2798 52.4353 53.8856C53.1309 54.3631 54.1344 54.6128 55.8905 54.741C57.8976 54.8906 59.7469 54.5913 61.453 53.8216L61.9477 53.6004L61.711 53.3013C60.299 51.4978 58.7576 49.7873 56.7076 47.7559C52.6505 43.7359 48.7654 40.7636 45.4824 39.167C44.0702 38.4826 43.4248 38.2686 42.6437 38.2262C42.0344 38.1904 42.0201 38.1904 41.8982 38.3756Z" fill="#CD1818"/>
<path d="M39.2675 41.7472C37.0023 44.9691 35.1459 48.9392 34.4506 52.0468C33.8987 54.4916 33.8412 56.8581 34.2714 58.9822C35.1244 63.1732 38.4002 67.2359 42.5148 69.2104C44.6293 70.2224 46.6509 70.6288 49.1381 70.5433C51.4895 70.4578 53.5036 70.0158 56.0555 69.0179C58.3278 68.1271 61.0949 66.6302 63.1449 65.1903C63.5249 64.9194 63.5821 64.8555 63.4674 64.8197C62.8368 64.5988 62.1054 64.2779 61.2524 63.8361C54.6361 60.4433 45.6401 51.7687 41.4825 44.7837C40.9234 43.8428 40.2425 42.5099 39.9629 41.8042C39.8554 41.5263 39.7479 41.2769 39.7122 41.2484C39.6832 41.2127 39.4827 41.4406 39.2675 41.7472ZM47.0235 54.1067C48.8084 54.5628 50.0271 55.7533 50.5505 57.5708C50.6865 58.0341 50.7152 58.2907 50.708 59.1246C50.708 59.9728 50.6722 60.2294 50.5145 60.8354C49.9339 62.988 48.3282 65.0549 46.3354 66.2024C45.0737 66.9296 43.4681 67.3359 42.1564 67.2644C41.2818 67.2147 40.7729 67.0793 39.9414 66.6729C37.6404 65.5539 36.7228 62.8026 37.6764 59.9015C38.1708 58.3762 39.2748 56.8223 40.565 55.8103C42.6223 54.1994 44.952 53.5864 47.0235 54.1067Z" fill="#CD1818"/>
<path d="M44.8657 54.4558C42.1633 54.7837 39.5039 56.8293 38.3784 59.4525C37.5399 61.4197 37.6258 63.4441 38.6079 64.8837C39.0453 65.5182 39.4609 65.8673 40.2492 66.2594C41.1096 66.6799 41.7477 66.8154 42.7225 66.7657C46.0845 66.5872 49.1165 64.0428 50.0483 60.6212C50.1773 60.1582 50.206 59.8586 50.206 59.0534C50.1988 58.1695 50.1773 57.9913 50.0126 57.4781C49.4175 55.6818 47.8908 54.5628 45.8765 54.4343C45.5826 54.4131 45.1237 54.4273 44.8657 54.4558ZM46.5216 56.0666C46.5646 56.1096 46.5431 56.2663 46.4426 56.523C46.3566 56.7369 46.2422 57.2002 46.1847 57.5565C46.0627 58.305 45.9195 58.6613 45.5683 59.0534C45.1954 59.481 44.6938 59.7234 43.9197 59.8446C43.0521 59.9798 42.6795 60.1082 42.1561 60.4433C41.0881 61.1275 40.5792 61.9614 40.3282 63.4298C40.1705 64.3277 40.142 64.3707 39.8981 64.057C39.1313 63.0592 39.1455 61.277 39.9341 59.7304C40.5577 58.4974 41.8909 57.1429 43.0451 56.5799C43.4535 56.3733 44.1919 56.1239 44.665 56.0239C45.0737 55.9454 46.4211 55.9669 46.5216 56.0666ZM48.2275 57.2856C48.9946 58.5044 48.8513 60.2721 47.8406 61.9542C47.3962 62.6956 46.3209 63.7932 45.5753 64.278C44.4858 64.9834 43.2458 65.3473 42.2206 65.2688C41.5467 65.2188 41.4035 65.1688 41.4752 65.0121C41.6544 64.6128 41.7907 64.114 41.8551 63.615C41.9554 62.9093 42.1991 62.4032 42.622 62.0114C43.0379 61.6336 43.425 61.4624 44.0914 61.3697C45.2384 61.206 45.8405 60.9279 46.5646 60.2009C47.2097 59.5594 47.4894 59.0034 47.6683 57.9841C47.8836 56.7866 47.8978 56.7654 48.2275 57.2856Z" fill="#CD1818"/>
<path d="M44.4431 56.6014C43.3606 56.8793 42.5435 57.3641 41.6977 58.2195C41.0093 58.9107 40.7012 59.3243 40.35 60.0512C39.9701 60.8351 39.8553 61.3342 39.8553 62.1896L39.8626 62.9023L40.0561 62.332C40.6294 60.6712 41.9556 59.6164 43.7762 59.367C44.4358 59.2743 44.9232 59.0462 45.2244 58.6826C45.4896 58.3619 45.6186 58.0198 45.726 57.3426C45.769 57.0647 45.8265 56.7581 45.848 56.6442L45.891 56.4518L45.4394 56.459C45.1884 56.459 44.737 56.523 44.4431 56.6014Z" fill="#CD1818"/>
<path d="M48.07 58.5686C48.0413 58.7398 47.8908 59.1316 47.7331 59.4525C47.3819 60.1724 46.5864 60.9991 45.8983 61.3557C45.4179 61.6051 44.5003 61.8687 44.0917 61.8687C43.554 61.876 42.8517 62.3393 42.572 62.881C42.5005 63.0305 42.4001 63.3871 42.3643 63.6792C42.3213 63.9643 42.2568 64.3137 42.2208 64.4419C42.1779 64.5773 42.1491 64.7128 42.1491 64.7485C42.1491 64.8555 43.3104 64.7343 43.798 64.5701C44.744 64.2637 45.4609 63.8289 46.2422 63.102C47.6256 61.8047 48.407 59.9943 48.1848 58.6256L48.1275 58.2692L48.07 58.5686Z" fill="#CD1818"/>
<path d="M66.6141 41.9254C66.2914 42.082 66.4204 42.6238 67.0083 43.6504C67.4312 44.3773 67.7609 45.2325 67.9761 46.1521C68.1768 47.029 68.191 48.7322 67.9976 49.6091C67.3667 52.5099 65.6536 54.5913 62.7575 55.9954C61.0371 56.8223 59.367 57.2214 57.4029 57.2856L56.127 57.3284L56.8868 57.9271C57.3097 58.255 58.005 58.7825 58.4352 59.0889C59.3167 59.7234 59.3527 59.7306 60.2128 59.5522C62.0909 59.1604 63.797 58.2195 65.2737 56.7581C66.0837 55.9669 66.3344 55.8457 66.9078 55.9669C67.6679 56.1309 68.0905 56.9648 67.7824 57.699C67.6534 57.9983 66.7289 58.9679 66.019 59.5379C65.037 60.3221 63.6895 61.099 62.7217 61.4339L62.3273 61.5693L63.0442 61.9045C64.0694 62.382 65.1517 62.7311 65.7753 62.7741L66.2987 62.8168L66.8866 62.2536C69.2448 59.98 70.7714 56.7939 71.3236 52.9877C71.517 51.6833 71.5815 49.6091 71.474 48.5043C71.1586 45.3394 69.9259 43.0374 68.0191 42.0893C67.4957 41.8257 66.951 41.7614 66.6141 41.9254Z" fill="#CD1818"/>
<path d="M43.6043 43.3295C44.8087 45.3751 46.909 48.2262 48.4787 49.9582L48.8156 50.3361V49.6731C48.8156 48.7537 48.6936 47.4635 48.5577 46.9502C48.2925 45.9169 47.5541 44.9049 46.5146 44.1277C45.6258 43.4577 44.5218 42.9517 43.5758 42.7807L43.2386 42.7165L43.6043 43.3295Z" fill="#CD1818"/>
<path d="M11.1611 51.8114L10.8959 51.8542L11.3045 52.0681C11.8923 52.3745 12.7095 53.1586 13.0177 53.7289C13.0391 53.7646 14.48 52.9947 14.48 52.9447C14.48 52.9235 14.2578 52.7526 13.9782 52.5671C13.1108 51.9899 11.9424 51.676 11.1611 51.8114Z" fill="white"/>
<path d="M89.2084 51.8187C88.6635 51.9042 87.9179 52.2108 87.3733 52.5741C87.1009 52.7523 86.8787 52.9235 86.8787 52.9447C86.8787 52.9947 88.3193 53.7646 88.3408 53.7289C88.649 53.1586 89.4591 52.3817 90.0684 52.0538C90.3481 51.9042 90.4484 51.8187 90.3481 51.8187C90.2619 51.8187 90.0542 51.8044 89.882 51.7902C89.71 51.7687 89.4091 51.783 89.2084 51.8187Z" fill="white"/>
<path d="M9.31152 53.3653C9.1538 53.9141 9.20399 54.7622 9.42619 55.3824C9.63407 55.9597 9.77744 56.2236 10.1645 56.7581L10.4083 57.0932L10.7093 56.473C10.8813 56.1239 11.1824 55.6248 11.3831 55.3612C11.591 55.0973 11.7559 54.8479 11.7559 54.8052C11.7559 54.6555 11.3903 54.178 11.0104 53.8358C10.7237 53.572 10.4512 53.4153 10.0283 53.2513C9.71293 53.1301 9.44054 53.0302 9.42619 53.0302C9.41902 53.0302 9.36886 53.1801 9.31152 53.3653Z" fill="white"/>
<path d="M91.3017 53.2583C90.9145 53.408 90.6276 53.5792 90.3481 53.8359C89.9682 54.178 89.6025 54.6555 89.6025 54.8052C89.6025 54.8479 89.7675 55.0973 89.9755 55.3612C90.1762 55.6248 90.4771 56.1239 90.6493 56.473L90.9502 57.0932L91.1939 56.7581C91.8248 55.8815 92.1187 55.1116 92.133 54.2777C92.1402 53.7501 92.0113 53.0232 91.9038 53.0374C91.8823 53.0374 91.6099 53.1371 91.3017 53.2583Z" fill="white"/>
<path d="M15.4905 54.3491C14.6877 54.577 13.9923 55.0049 13.2181 55.7745C12.5874 56.3948 12.4512 56.5729 12.1645 57.1644C11.9852 57.535 11.7989 57.9841 11.763 58.1623C11.677 58.5331 11.6555 59.5879 11.7415 59.5879C11.7702 59.5879 11.8849 59.4098 11.9996 59.1958C12.2075 58.7968 12.7451 58.191 13.1895 57.8629C13.6052 57.5495 14.2647 57.2572 14.9744 57.0575C15.7628 56.8366 15.978 56.7369 16.4009 56.3948C16.795 56.0812 17.1464 55.5536 17.3829 54.9336L17.5621 54.4558L17.3686 54.3704C17.0531 54.2422 15.9349 54.2279 15.4905 54.3491Z" fill="white"/>
<path d="M84.2265 54.2922C84.169 54.3134 84.0473 54.3634 83.954 54.3919L83.7963 54.4558L83.9755 54.9336C84.212 55.5536 84.5631 56.0812 84.9576 56.3948C85.3805 56.7369 85.5954 56.8366 86.384 57.0575C87.0936 57.2572 87.7532 57.5495 88.1688 57.8632C88.6132 58.191 89.1509 58.7968 89.3588 59.1958C89.4736 59.4098 89.588 59.5879 89.624 59.5879C89.703 59.5879 89.6813 58.5331 89.5953 58.1623C89.5595 57.9841 89.3731 57.535 89.1939 57.1644C88.9072 56.5729 88.771 56.3948 88.1401 55.7745C87.3518 54.9904 86.6564 54.5628 85.8321 54.3489C85.4307 54.2492 84.4487 54.2137 84.2265 54.2922Z" fill="white"/>
<path d="M18.4939 56.366C18.1283 57.0717 17.39 57.7774 16.623 58.148C16.2932 58.312 15.7699 58.5116 15.4546 58.5898C15.1464 58.6683 14.788 58.7895 14.666 58.8537C13.9206 59.2313 13.3829 59.8443 13.0819 60.6785L12.9099 61.1418L13.211 61.213C13.77 61.3554 14.0281 61.3697 14.537 61.2984C16.2143 61.0633 17.8487 59.7304 18.5368 58.0268C18.7447 57.5138 18.8666 56.6727 18.7949 56.2236L18.7447 55.8815L18.4939 56.366Z" fill="white"/>
<path d="M82.5564 56.2521C82.3412 58.0698 83.8321 60.2437 85.8394 61.0421C86.6492 61.3627 87.3518 61.4127 88.1476 61.213L88.4486 61.1418L88.2766 60.6785C87.9754 59.8446 87.4378 59.2316 86.6925 58.8537C86.5705 58.7895 86.2121 58.6683 85.9039 58.5901C85.5884 58.5116 85.0651 58.312 84.7354 58.148C83.9756 57.7844 83.2372 57.079 82.8573 56.359L82.5994 55.8672L82.5564 56.2521Z" fill="white"/>
<path d="M37.5542 83.2235C36.945 83.4089 36.3929 84.1216 36.099 85.0979C35.6833 86.5021 36.4217 87.6711 37.7406 87.6711C38.2495 87.6711 38.5507 87.5429 38.9161 87.1793C39.6114 86.4879 40.0059 85.0552 39.7262 84.2428C39.4537 83.4729 38.3785 82.9668 37.5542 83.2235Z" fill="#CD1818"/>
</svg>
